<?xml version="1.0" encoding="UTF-8"?>
<!DOCTYPE svg PUBLIC "-//W3C//DTD SVG 1.1//EN" "http://www.w3.org/Graphics/SVG/1.1/DTD/svg11.dtd">
<svg xmlns="http://www.w3.org/2000/svg" version="1.1" width="103px" height="103px" style="shape-rendering:geometricPrecision; text-rendering:geometricPrecision; image-rendering:optimizeQuality; fill-rule:evenodd; clip-rule:evenodd" xmlns:xlink="http://www.w3.org/1999/xlink">
<g><path style="opacity:0.884" fill="#597cc2" d="M 41.5,-0.5 C 48.1667,-0.5 54.8333,-0.5 61.5,-0.5C 82.8333,5.5 96.5,19.1667 102.5,40.5C 102.5,47.1667 102.5,53.8333 102.5,60.5C 93.3061,90.4945 72.9727,103.994 41.5,101C 11.2997,92.1156 -2.20035,71.9489 1,40.5C 6.68195,18.9853 20.182,5.31865 41.5,-0.5 Z"/></g>
<g><path style="opacity:1" fill="#fbfcfd" d="M 46.5,24.5 C 60.991,23.789 66.1577,30.4556 62,44.5C 59.7338,47.9929 58.4004,51.6596 58,55.5C 63.4877,57.7647 68.4877,60.7647 73,64.5C 73.7772,67.4294 73.6105,70.2628 72.5,73C 65.4791,75.9276 58.1457,77.0942 50.5,76.5C 46.1667,76.3333 41.8333,76.1667 37.5,76C 34.8041,75.2352 32.3041,74.0685 30,72.5C 29.3333,69.8333 29.3333,67.1667 30,64.5C 34.3694,60.4806 39.3694,57.4806 45,55.5C 45.6667,54.1667 45.6667,52.8333 45,51.5C 39.0614,44.4374 38.0614,36.7707 42,28.5C 43.3968,26.9297 44.8968,25.5964 46.5,24.5 Z"/></g>
<g><path style="opacity:0.89" fill="#6282c5" d="M 49.5,57.5 C 54.6195,57.2411 55.6195,59.0745 52.5,63C 54.4239,66.603 55.4239,70.4363 55.5,74.5C 52.8333,74.5 50.1667,74.5 47.5,74.5C 47.8706,70.3509 48.8706,66.3509 50.5,62.5C 48.5764,61.0347 48.2431,59.368 49.5,57.5 Z"/></g>
</svg>
