<?xml version="1.0" encoding="UTF-8"?>
<!DOCTYPE svg PUBLIC "-//W3C//DTD SVG 1.1//EN" "http://www.w3.org/Graphics/SVG/1.1/DTD/svg11.dtd">
<svg xmlns="http://www.w3.org/2000/svg" version="1.1" width="274px" height="224px" style="shape-rendering:geometricPrecision; text-rendering:geometricPrecision; image-rendering:optimizeQuality; fill-rule:evenodd; clip-rule:evenodd" xmlns:xlink="http://www.w3.org/1999/xlink">
<g><path style="opacity:0.996" fill="#70bdd8" d="M 144.5,-0.5 C 153.167,-0.5 161.833,-0.5 170.5,-0.5C 176.552,0.853247 182.218,3.35325 187.5,7C 193.667,13.1667 199.833,19.3333 206,25.5C 209.401,30.5773 212.401,35.9107 215,41.5C 224.751,67.0172 238.085,90.3505 255,111.5C 271.474,120.919 276.474,134.586 270,152.5C 265.087,162.489 258.587,171.322 250.5,179C 224.847,202.66 194.847,217.493 160.5,223.5C 147.167,223.5 133.833,223.5 120.5,223.5C 89.1052,221.424 61.1052,210.591 36.5,191C 14.3265,169.821 1.99313,143.988 -0.5,113.5C -0.5,109.167 -0.5,104.833 -0.5,100.5C 0.122133,75.7568 10.7888,56.5901 31.5,43C 66.1222,20.5161 103.789,6.01608 144.5,-0.5 Z"/></g>
</svg>
