<?xml version="1.0" encoding="iso-8859-1"?>
<!-- Generator: Adobe Illustrator 19.0.0, SVG Export Plug-In . SVG Version: 6.00 Build 0)  -->
<svg version="1.1" id="Capa_1" xmlns="http://www.w3.org/2000/svg" xmlns:xlink="http://www.w3.org/1999/xlink" x="0px" y="0px"
	 viewBox="0 0 54 54" style="enable-background:new 0 0 54 54;" xml:space="preserve">
<g>
	<g>
		<path d="M51.977,41.283C51.874,40.825,51.469,40.5,51,40.5h-4v-27h5c0.352,0,0.677-0.185,0.857-0.485
			c0.181-0.302,0.19-0.676,0.024-0.985l-4.808-9C47.901,2.703,47.562,2.5,47.192,2.5H6.808C6.439,2.5,6.1,2.703,5.926,3.029
			l-4.808,9c-0.166,0.31-0.156,0.684,0.024,0.985C1.323,13.316,1.649,13.5,2,13.5h5v27H3c-0.469,0-0.874,0.325-0.977,0.783l-2,9
			c-0.065,0.296,0.007,0.605,0.196,0.843C0.41,51.362,0.696,51.5,1,51.5h52c0.304,0,0.59-0.138,0.78-0.374
			c0.189-0.237,0.262-0.547,0.196-0.843L51.977,41.283z M7.407,4.5h39.186l3.739,7H46H8H3.668L7.407,4.5z M9,13.5h36v27v2v3h-3v-26
			c0-0.553-0.447-1-1-1H13c-0.553,0-1,0.447-1,1v26H9v-3v-2C9,40.5,9,13.5,9,13.5z M40,45.5H14v-25h26V45.5z M2.247,49.5l1.555-7H7
			v4c0,0.553,0.447,1,1,1h5h28h5c0.553,0,1-0.447,1-1v-4h3.198l1.555,7H2.247z"/>
		<rect x="17" y="23.5" width="20.027" height="2"/>
		<rect x="17" y="27.5" width="20.027" height="2"/>
		<rect x="17" y="31.5" width="20.027" height="2"/>
		<rect x="17" y="35.5" width="20.027" height="2"/>
		<rect x="17" y="39.5" width="20.027" height="2"/>
	</g>
</g>
<g>
</g>
<g>
</g>
<g>
</g>
<g>
</g>
<g>
</g>
<g>
</g>
<g>
</g>
<g>
</g>
<g>
</g>
<g>
</g>
<g>
</g>
<g>
</g>
<g>
</g>
<g>
</g>
<g>
</g>
</svg>
