<?xml version="1.0" encoding="UTF-8"?>
<!DOCTYPE svg PUBLIC "-//W3C//DTD SVG 1.1//EN" "http://www.w3.org/Graphics/SVG/1.1/DTD/svg11.dtd">
<svg xmlns="http://www.w3.org/2000/svg" version="1.1" width="103px" height="103px" style="shape-rendering:geometricPrecision; text-rendering:geometricPrecision; image-rendering:optimizeQuality; fill-rule:evenodd; clip-rule:evenodd" xmlns:xlink="http://www.w3.org/1999/xlink">
<g><path style="opacity:0.99" fill="#70bed9" d="M 40.5,-0.5 C 47.1667,-0.5 53.8333,-0.5 60.5,-0.5C 90.4945,8.69392 103.994,29.0273 101,60.5C 92.1156,90.7003 71.9489,104.2 40.5,101C 18.9853,95.318 5.31865,81.818 -0.5,60.5C -0.5,53.8333 -0.5,47.1667 -0.5,40.5C 5.5,19.1667 19.1667,5.5 40.5,-0.5 Z"/></g>
<g><path style="opacity:1" fill="#fcfdfe" d="M 45.5,27.5 C 49.1064,27.2108 52.6064,27.5442 56,28.5C 56.1717,33.2018 56.6717,37.8685 57.5,42.5C 58.7658,38.9561 60.7658,35.9561 63.5,33.5C 72.3885,40.2883 76.0552,49.2883 74.5,60.5C 58.5,60.5 42.5,60.5 26.5,60.5C 24.938,49.2999 28.6047,40.2999 37.5,33.5C 39.9748,35.7703 41.9748,38.437 43.5,41.5C 44.218,36.7877 44.8847,32.121 45.5,27.5 Z"/></g>
<g><path style="opacity:1" fill="#f9fcfd" d="M 24.5,63.5 C 41.8333,63.5 59.1667,63.5 76.5,63.5C 76.762,64.9778 76.4287,66.3112 75.5,67.5C 63.7832,73.0748 51.4499,74.9081 38.5,73C 33.8468,71.8404 29.5134,70.0071 25.5,67.5C 24.5713,66.3112 24.238,64.9778 24.5,63.5 Z"/></g>
</svg>
