<?xml version="1.0" encoding="iso-8859-1"?>
<!-- Generator: Adobe Illustrator 18.1.1, SVG Export Plug-In . SVG Version: 6.00 Build 0)  -->
<svg version="1.1" id="Capa_1" xmlns="http://www.w3.org/2000/svg" xmlns:xlink="http://www.w3.org/1999/xlink" x="0px" y="0px"
	 viewBox="0 0 17.52 17.52" style="enable-background:new 0 0 17.52 17.52;" xml:space="preserve">
<g>
	<g>
		<g>
			<path style="fill:#090509;" d="M10.461,1.079L9.598,4.294L9.809,0.23c-1.193-0.517-2.236,0-2.236,0l0.211,4.064L6.923,1.079
				C4.526,1.746,3.007,3.698,3.007,6.307h11.372C14.379,3.698,12.859,1.746,10.461,1.079z"/>
			<path style="fill:#090509;" d="M15.491,6.773H2.03v1.076h1.477L3.5,8.209c0,0.001,0.001,0.126,0,0.201
				c-0.089,0.275-0.064,0.45,0.179,1.737c-0.027,0.027-0.053,0.056-0.077,0.088c-0.349,0.464-0.176,1.339-0.036,1.839
				c0.073,0.442,0.241,0.733,0.4,0.915c0.403,2.429,2.531,4.531,4.618,4.531c2.219,0,4.428-2.058,4.887-4.523
				c0.16-0.183,0.33-0.467,0.399-0.9c0.167-0.604,0.294-1.399-0.015-1.842c0.101-0.392,0.203-0.914,0.232-1.49
				c0.041-0.094,0.045-0.202,0.008-0.303c0-0.055,0-0.106-0.002-0.145l0.004-0.063c0.002-0.031,0-0.062-0.006-0.093l-0.056-0.312
				h1.454L15.491,6.773L15.491,6.773z"/>
		</g>
	</g>
</g>
<g>
</g>
<g>
</g>
<g>
</g>
<g>
</g>
<g>
</g>
<g>
</g>
<g>
</g>
<g>
</g>
<g>
</g>
<g>
</g>
<g>
</g>
<g>
</g>
<g>
</g>
<g>
</g>
<g>
</g>
</svg>
