<?xml version="1.0" encoding="UTF-8"?>
<!DOCTYPE svg PUBLIC "-//W3C//DTD SVG 1.1//EN" "http://www.w3.org/Graphics/SVG/1.1/DTD/svg11.dtd">
<svg xmlns="http://www.w3.org/2000/svg" version="1.1" width="295px" height="200px" style="shape-rendering:geometricPrecision; text-rendering:geometricPrecision; image-rendering:optimizeQuality; fill-rule:evenodd; clip-rule:evenodd" xmlns:xlink="http://www.w3.org/1999/xlink">
<g><path style="opacity:0.967" fill="#24286a" d="M 86.5,27.5 C 85.5,27.5 84.5,27.5 83.5,27.5C 80.8078,26.9913 78.3078,25.9913 76,24.5C 74.1353,26.6732 71.9686,27.0066 69.5,25.5C 68.2801,25.8869 67.6135,26.7202 67.5,28C 68.1667,29.3333 68.8333,30.6667 69.5,32C 68.8235,33.6833 67.8235,33.8499 66.5,32.5C 61.3276,27.6395 60.3276,21.9729 63.5,15.5C 73.1049,17.2054 82.7716,18.5387 92.5,19.5C 92.7624,23.9 90.7624,26.5667 86.5,27.5 Z"/></g>
<g><path style="opacity:0.976" fill="#f2b5b3" d="M 83.5,27.5 C 83.5,28.5 83.5,29.5 83.5,30.5C 83.5,30.8333 83.5,31.1667 83.5,31.5C 83.5,32.1667 83.5,32.8333 83.5,33.5C 80.3716,36.7716 76.3716,38.2716 71.5,38C 70.695,39.1127 70.0283,40.2794 69.5,41.5C 65.9909,41.1921 64.3243,39.1921 64.5,35.5C 65.1667,34.5 65.8333,33.5 66.5,32.5C 67.8235,33.8499 68.8235,33.6833 69.5,32C 68.8333,30.6667 68.1667,29.3333 67.5,28C 67.6135,26.7202 68.2801,25.8869 69.5,25.5C 71.9686,27.0066 74.1353,26.6732 76,24.5C 78.3078,25.9913 80.8078,26.9913 83.5,27.5 Z"/></g>
<g><path style="opacity:0.341" fill="#3986f5" d="M 83.5,27.5 C 84.5,27.5 85.5,27.5 86.5,27.5C 86.6602,29.1992 86.4935,30.8659 86,32.5C 85.3292,33.2524 84.4959,33.5858 83.5,33.5C 83.5,32.8333 83.5,32.1667 83.5,31.5C 84.3764,31.6309 85.0431,31.2975 85.5,30.5C 85.0302,29.537 84.3635,29.537 83.5,30.5C 83.5,29.5 83.5,28.5 83.5,27.5 Z"/></g>
<g><path style="opacity:0.989" fill="#222768" d="M 64.5,35.5 C 64.3243,39.1921 65.9909,41.1921 69.5,41.5C 66.8346,49.9733 66.0013,58.64 67,67.5C 67.8333,68.3333 68.6667,69.1667 69.5,70C 73.5402,71.6903 77.5402,73.357 81.5,75C 80.2689,78.4228 79.2689,81.9228 78.5,85.5C 76.7773,87.78 76.1107,90.4467 76.5,93.5C 76.1307,95.4412 75.464,97.2745 74.5,99C 71.4453,99.6342 68.4453,99.4675 65.5,98.5C 65.5,97.8333 65.1667,97.5 64.5,97.5C 61.0732,91.4101 56.0732,87.0768 49.5,84.5C 48.3523,82.8513 47.019,81.3513 45.5,80C 41.1047,78.9849 36.7713,77.8182 32.5,76.5C 28.7935,75.2297 25.2935,73.5631 22,71.5C 21.4024,67.9473 22.0691,64.614 24,61.5C 31.122,56.3789 37.622,50.5456 43.5,44C 50.0956,40.0814 57.0956,37.248 64.5,35.5 Z"/></g>
<g><path style="opacity:0.957" fill="#e84a47" d="M 246.5,78.5 C 244.865,77.1854 243.199,77.1854 241.5,78.5C 239.976,75.9261 238.642,73.2594 237.5,70.5C 236.479,66.896 236.479,63.2293 237.5,59.5C 232.919,60.0769 228.752,59.0769 225,56.5C 224.722,57.4158 224.222,58.0825 223.5,58.5C 223.248,51.0906 226.915,47.7573 234.5,48.5C 236.965,48.4777 239.298,48.9777 241.5,50C 244.409,53.3741 246.576,57.2075 248,61.5C 250.631,63.8929 253.131,66.3929 255.5,69C 256.287,71.0989 256.62,73.2655 256.5,75.5C 252.884,75.8993 249.55,76.8993 246.5,78.5 Z"/></g>
<g><path style="opacity:1" fill="#3482ed" d="M 123.5,58.5 C 119.253,57.3982 114.92,57.2316 110.5,58C 109.167,59.3333 109.167,60.6667 110.5,62C 114.92,62.7684 119.253,62.6018 123.5,61.5C 124.167,61.5 124.5,61.8333 124.5,62.5C 113.012,63.4949 101.345,63.8283 89.5,63.5C 86.7005,60.6936 87.0338,58.1936 90.5,56C 101.828,55.5001 113.162,55.3335 124.5,55.5C 124.737,56.791 124.404,57.791 123.5,58.5 Z"/></g>
<g><path style="opacity:0.964" fill="#fbb6af" d="M 237.5,70.5 C 235.246,71.4151 233.246,72.7484 231.5,74.5C 231.657,73.1266 231.49,71.7932 231,70.5C 227.399,68.9511 224.233,66.7844 221.5,64C 222.861,62.4157 223.528,60.5824 223.5,58.5C 224.222,58.0825 224.722,57.4158 225,56.5C 228.752,59.0769 232.919,60.0769 237.5,59.5C 236.479,63.2293 236.479,66.896 237.5,70.5 Z"/></g>
<g><path style="opacity:1" fill="#cfdaeb" d="M 123.5,58.5 C 123.5,59.5 123.5,60.5 123.5,61.5C 119.253,62.6018 114.92,62.7684 110.5,62C 109.167,60.6667 109.167,59.3333 110.5,58C 114.92,57.2316 119.253,57.3982 123.5,58.5 Z"/></g>
<g><path style="opacity:1" fill="#e9ecf1" d="M 91.5,68.5 C 91.5,67.5 91.5,66.5 91.5,65.5C 102.659,64.3407 113.992,64.1741 125.5,65C 126.337,66.0113 126.67,67.1779 126.5,68.5C 114.833,68.5 103.167,68.5 91.5,68.5 Z"/></g>
<g><path style="opacity:1" fill="#e5e9f0" d="M 88.5,75.5 C 88.5,74.5 88.5,73.5 88.5,72.5C 100.091,71.3561 111.757,71.1894 123.5,72C 124.833,73.3333 124.833,74.6667 123.5,76C 111.757,76.8106 100.091,76.6439 88.5,75.5 Z"/></g>
<g><path style="opacity:0.998" fill="#232666" d="M 237.5,70.5 C 238.642,73.2594 239.976,75.9261 241.5,78.5C 243.199,77.1854 244.865,77.1854 246.5,78.5C 247.248,80.3325 248.248,81.9991 249.5,83.5C 250.016,86.8988 250.85,90.2321 252,93.5C 258.138,100.433 258.971,107.933 254.5,116C 251.183,116.498 247.85,116.665 244.5,116.5C 241.327,116.599 238.327,115.932 235.5,114.5C 230.856,115.554 226.189,115.554 221.5,114.5C 217.61,114.852 213.777,115.519 210,116.5C 207.779,116.607 205.946,115.94 204.5,114.5C 204.672,113.508 204.338,112.842 203.5,112.5C 203.5,111.5 203.5,110.5 203.5,109.5C 203.5,108.833 203.5,108.167 203.5,107.5C 203.244,105.063 202.577,102.729 201.5,100.5C 202.993,99.8589 203.993,98.8589 204.5,97.5C 213.039,96.6467 220.206,92.98 226,86.5C 226.992,81.982 228.826,77.982 231.5,74.5C 233.246,72.7484 235.246,71.4151 237.5,70.5 Z"/></g>
<g><path style="opacity:0.994" fill="#95baf4" d="M 124.5,62.5 C 128.146,63.4615 129.313,65.7949 128,69.5C 127.25,70.1258 126.416,70.6258 125.5,71C 126.784,74.0642 126.451,76.8975 124.5,79.5C 119.015,78.3483 113.349,78.1816 107.5,79C 106.167,80.3333 106.167,81.6667 107.5,83C 113.349,83.8184 119.015,83.6517 124.5,82.5C 126.042,83.3007 127.708,83.634 129.5,83.5C 129.715,85.1788 129.048,86.1788 127.5,86.5C 116.679,85.5054 105.679,85.1721 94.5,85.5C 94.6495,84.448 94.4828,83.448 94,82.5C 93.2917,83.3805 92.4584,84.0472 91.5,84.5C 88.8858,84.7229 87.2191,83.5562 86.5,81C 88.3065,79.2133 88.9732,77.38 88.5,75.5C 100.091,76.6439 111.757,76.8106 123.5,76C 124.833,74.6667 124.833,73.3333 123.5,72C 111.757,71.1894 100.091,71.3561 88.5,72.5C 87.3657,70.0399 88.3657,68.7066 91.5,68.5C 103.167,68.5 114.833,68.5 126.5,68.5C 126.67,67.1779 126.337,66.0113 125.5,65C 113.992,64.1741 102.659,64.3407 91.5,65.5C 90.1667,65.5 89.5,64.8333 89.5,63.5C 101.345,63.8283 113.012,63.4949 124.5,62.5 Z"/></g>
<g><path style="opacity:0.908" fill="#f0f3f8" d="M 124.5,79.5 C 124.5,80.5 124.5,81.5 124.5,82.5C 119.015,83.6517 113.349,83.8184 107.5,83C 106.167,81.6667 106.167,80.3333 107.5,79C 113.349,78.1816 119.015,78.3483 124.5,79.5 Z"/></g>
<g><path style="opacity:0.98" fill="#3f8af9" d="M 32.5,76.5 C 36.7713,77.8182 41.1047,78.9849 45.5,80C 47.019,81.3513 48.3523,82.8513 49.5,84.5C 56.0732,87.0768 61.0732,91.4101 64.5,97.5C 65.1667,97.5 65.5,97.8333 65.5,98.5C 73.841,122.857 81.1743,147.524 87.5,172.5C 83.5,172.5 79.5,172.5 75.5,172.5C 70.7775,173.447 66.9442,172.114 64,168.5C 60.3578,159.913 57.0245,151.246 54,142.5C 50.9896,152.848 47.1562,162.848 42.5,172.5C 38.1667,172.5 33.8333,172.5 29.5,172.5C 27.8333,172.5 26.1667,172.5 24.5,172.5C 23.7645,162.897 25.5978,153.897 30,145.5C 30.6667,141.5 31.3333,137.5 32,133.5C 35.1352,126.904 37.9685,120.237 40.5,113.5C 39.7741,109.478 38.9407,105.478 38,101.5C 33.4472,93.6365 31.6138,85.3032 32.5,76.5 Z"/></g>
<g><path style="opacity:0.98" fill="#222768" d="M 173.5,101.5 C 175.451,102.641 177.451,102.641 179.5,101.5C 180.5,101.5 181.5,101.5 182.5,101.5C 186.994,103.112 191.661,103.778 196.5,103.5C 181.009,104.496 165.342,104.83 149.5,104.5C 147.506,97.8625 145.506,91.1959 143.5,84.5C 151.167,83.1667 158.833,83.1667 166.5,84.5C 168.099,89.4647 169.599,94.4647 171,99.5C 171.417,100.756 172.25,101.423 173.5,101.5 Z"/></g>
<g><path style="opacity:0.953" fill="#fbb9b2" d="M 94.5,85.5 C 92.5337,86.2545 92.2004,87.4212 93.5,89C 97.3563,89.1773 101.023,89.6773 104.5,90.5C 104.167,91.1667 103.833,91.8333 103.5,92.5C 102.5,93.8333 101.5,95.1667 100.5,96.5C 96.9896,97.41 93.6562,97.7433 90.5,97.5C 90.1667,97.5 89.8333,97.5 89.5,97.5C 85.6222,94.9871 81.2888,93.6538 76.5,93.5C 76.1107,90.4467 76.7773,87.78 78.5,85.5C 81.1505,86.4897 83.8172,87.4897 86.5,88.5C 88.7615,87.9047 90.4281,86.5714 91.5,84.5C 92.4584,84.0472 93.2917,83.3805 94,82.5C 94.4828,83.448 94.6495,84.448 94.5,85.5 Z"/></g>
<g><path style="opacity:0.977" fill="#eaeff7" d="M 94.5,85.5 C 105.679,85.1721 116.679,85.5054 127.5,86.5C 127.5,87.5 127.5,88.5 127.5,89.5C 120.018,90.492 112.352,90.8254 104.5,90.5C 101.023,89.6773 97.3563,89.1773 93.5,89C 92.2004,87.4212 92.5337,86.2545 94.5,85.5 Z"/></g>
<g><path style="opacity:1" fill="#3c83e7" d="M 127.5,89.5 C 128.748,90.3339 129.415,91.6672 129.5,93.5C 130.157,97.5095 128.49,99.1762 124.5,98.5C 112.988,98.8281 101.654,98.4948 90.5,97.5C 93.6562,97.7433 96.9896,97.41 100.5,96.5C 104.167,96.5 107.833,96.5 111.5,96.5C 111.67,95.1779 111.337,94.0113 110.5,93C 108.19,92.5034 105.857,92.3367 103.5,92.5C 103.833,91.8333 104.167,91.1667 104.5,90.5C 112.352,90.8254 120.018,90.492 127.5,89.5 Z"/></g>
<g><path style="opacity:1" fill="#eaedf2" d="M 103.5,92.5 C 105.857,92.3367 108.19,92.5034 110.5,93C 111.337,94.0113 111.67,95.1779 111.5,96.5C 107.833,96.5 104.167,96.5 100.5,96.5C 101.5,95.1667 102.5,93.8333 103.5,92.5 Z"/></g>
<g><path style="opacity:0.983" fill="#f7b6b0" d="M 204.5,97.5 C 203.993,98.8589 202.993,99.8589 201.5,100.5C 202.577,102.729 203.244,105.063 203.5,107.5C 201.833,106.833 200.167,106.167 198.5,105.5C 198.167,104.5 197.5,103.833 196.5,103.5C 191.661,103.778 186.994,103.112 182.5,101.5C 181.5,100.167 180.5,100.167 179.5,101.5C 177.451,102.641 175.451,102.641 173.5,101.5C 175.237,99.4503 177.237,97.617 179.5,96C 182.393,95.7266 185.06,94.8932 187.5,93.5C 192.78,96.4822 198.446,97.8155 204.5,97.5 Z"/></g>
<g><path style="opacity:1" fill="#eef1f4" d="M 123.5,100.5 C 123.5,101.5 123.5,102.5 123.5,103.5C 111.5,103.5 99.5,103.5 87.5,103.5C 87.33,102.178 87.6634,101.011 88.5,100C 100.243,99.1894 111.909,99.3561 123.5,100.5 Z"/></g>
<g><path style="opacity:0.941" fill="#adc8ef" d="M 89.5,97.5 C 89.8333,97.5 90.1667,97.5 90.5,97.5C 101.654,98.4948 112.988,98.8281 124.5,98.5C 124.672,99.4916 124.338,100.158 123.5,100.5C 111.909,99.3561 100.243,99.1894 88.5,100C 87.6634,101.011 87.33,102.178 87.5,103.5C 99.5,103.5 111.5,103.5 123.5,103.5C 124.167,103.5 124.5,103.833 124.5,104.5C 121.375,105.479 118.042,105.813 114.5,105.5C 105.143,105.832 95.8096,105.498 86.5,104.5C 84.6469,100.895 85.6469,98.5621 89.5,97.5 Z"/></g>
<g><path style="opacity:1" fill="#747693" d="M 196.5,103.5 C 197.5,103.833 198.167,104.5 198.5,105.5C 181.991,105.83 165.658,105.496 149.5,104.5C 165.342,104.83 181.009,104.496 196.5,103.5 Z"/></g>
<g><path style="opacity:0.813" fill="#d6d7d8" d="M 124.5,104.5 C 132.833,104.5 141.167,104.5 149.5,104.5C 165.658,105.496 181.991,105.83 198.5,105.5C 200.167,106.167 201.833,106.833 203.5,107.5C 203.5,108.167 203.5,108.833 203.5,109.5C 175.5,109.5 147.5,109.5 119.5,109.5C 119.5,135.167 119.5,160.833 119.5,186.5C 117.833,186.5 116.167,186.5 114.5,186.5C 114.5,159.5 114.5,132.5 114.5,105.5C 118.042,105.813 121.375,105.479 124.5,104.5 Z"/></g>
<g><path style="opacity:0.988" fill="#438cfa" d="M 204.5,114.5 C 205.946,115.94 207.779,116.607 210,116.5C 213.777,115.519 217.61,114.852 221.5,114.5C 226.189,115.554 230.856,115.554 235.5,114.5C 238.327,115.932 241.327,116.599 244.5,116.5C 244.621,120.31 243.288,123.477 240.5,126C 231.221,129.689 221.555,131.356 211.5,131C 208.007,132.785 207.674,134.952 210.5,137.5C 212.431,141.552 213.598,145.885 214,150.5C 219.4,157.367 220.9,165.033 218.5,173.5C 214.167,173.5 209.833,173.5 205.5,173.5C 203.341,167.849 200.674,162.516 197.5,157.5C 194.048,148.577 190.548,139.577 187,130.5C 184.727,123.753 186.894,119.253 193.5,117C 197.171,116.1 200.837,115.266 204.5,114.5 Z"/></g>
<g><path style="opacity:0.982" fill="#d94140" d="M 249.5,83.5 C 253.846,83.3343 258.179,83.501 262.5,84C 264.584,85.5007 265.917,87.5007 266.5,90C 263.434,105.829 260.434,121.663 257.5,137.5C 252.167,137.5 246.833,137.5 241.5,137.5C 235.167,137.5 228.833,137.5 222.5,137.5C 218.5,137.5 214.5,137.5 210.5,137.5C 207.674,134.952 208.007,132.785 211.5,131C 221.555,131.356 231.221,129.689 240.5,126C 243.288,123.477 244.621,120.31 244.5,116.5C 247.85,116.665 251.183,116.498 254.5,116C 258.971,107.933 258.138,100.433 252,93.5C 250.85,90.2321 250.016,86.8988 249.5,83.5 Z"/></g>
<g><path style="opacity:0.95" fill="#237ef3" d="M 203.5,112.5 C 204.338,112.842 204.672,113.508 204.5,114.5C 200.837,115.266 197.171,116.1 193.5,117C 186.894,119.253 184.727,123.753 187,130.5C 190.548,139.577 194.048,148.577 197.5,157.5C 197.853,164.118 195.52,169.451 190.5,173.5C 186.5,173.5 182.5,173.5 178.5,173.5C 179.639,158.195 180.806,142.861 182,127.5C 181.726,121.944 183.892,117.777 188.5,115C 193.507,114.083 198.507,113.25 203.5,112.5 Z"/></g>
<g><path style="opacity:0.97" fill="#1e2260" d="M 29.5,172.5 C 33.8333,172.5 38.1667,172.5 42.5,172.5C 49.1557,176.499 55.489,180.999 61.5,186C 49.5046,186.5 37.5046,186.667 25.5,186.5C 27.0319,181.903 28.3652,177.236 29.5,172.5 Z"/></g>
<g><path style="opacity:0.985" fill="#1d225f" d="M 75.5,172.5 C 79.5,172.5 83.5,172.5 87.5,172.5C 92.8037,176.49 98.4704,179.99 104.5,183C 105.167,184 105.833,185 106.5,186C 94.5,186.667 82.5,186.667 70.5,186C 72.2685,181.527 73.9352,177.027 75.5,172.5 Z"/></g>
<g><path style="opacity:0.93" fill="#242b67" d="M 222.5,137.5 C 228.833,137.5 235.167,137.5 241.5,137.5C 239.97,140.021 237.636,141.021 234.5,140.5C 235.294,151.815 235.627,163.148 235.5,174.5C 240.844,174.334 246.177,174.501 251.5,175C 252.337,176.011 252.67,177.178 252.5,178.5C 252.158,179.338 251.492,179.672 250.5,179.5C 250.126,177.05 248.626,176.05 246,176.5C 244.833,176.667 243.667,176.833 242.5,177C 243.252,177.671 243.586,178.504 243.5,179.5C 242.5,179.5 241.5,179.5 240.5,179.5C 240.586,178.504 240.252,177.671 239.5,177C 234.167,176.333 228.833,176.333 223.5,177C 222.748,177.671 222.414,178.504 222.5,179.5C 221.503,179.47 220.836,179.97 220.5,181C 221.773,183.216 221.773,185.383 220.5,187.5C 200.489,187.833 180.489,187.5 160.5,186.5C 161.648,184.851 162.981,183.351 164.5,182C 169.694,179.909 174.361,177.076 178.5,173.5C 182.5,173.5 186.5,173.5 190.5,173.5C 190.989,176.467 192.155,179.133 194,181.5C 198.162,179.181 201.995,176.514 205.5,173.5C 209.833,173.5 214.167,173.5 218.5,173.5C 221.287,174.477 224.287,174.81 227.5,174.5C 227.373,163.148 227.706,151.815 228.5,140.5C 226.801,140.66 225.134,140.494 223.5,140C 222.748,139.329 222.414,138.496 222.5,137.5 Z"/></g>
<g><path style="opacity:0.919" fill="#eaeaea" d="M 240.5,179.5 C 241.5,179.5 242.5,179.5 243.5,179.5C 246.973,181.563 247.306,184.063 244.5,187C 240.819,188.314 238.486,187.147 237.5,183.5C 237.561,181.347 238.561,180.014 240.5,179.5 Z"/></g>
<g><path style="opacity:0.82" fill="#d8d8dd" d="M 222.5,179.5 C 224.89,179.685 225.89,181.018 225.5,183.5C 225.199,186.489 223.532,187.822 220.5,187.5C 221.773,185.383 221.773,183.216 220.5,181C 220.836,179.97 221.503,179.47 222.5,179.5 Z"/></g>
<g><path style="opacity:0.842" fill="#e4e5e5" d="M 252.5,178.5 C 256.369,180.7 257.036,183.533 254.5,187C 249,188.167 246.833,186 248,180.5C 248.671,179.748 249.504,179.414 250.5,179.5C 251.492,179.672 252.158,179.338 252.5,178.5 Z"/></g>
</svg>
